# xmcd
#
# Track frame offsets:
#	150
#	23019
#	44625
#	62342
#	85957
#	111737
#	137032
#	155240
#	171445
#	188937
#	209687
#	226609
#	244675
#	261562
#	277070
#	294312
#
# Disc length: 4175
#
# Revision: 2
# Processed by: cddbd v1.5.1PL0 Copyright (c) Steve Scherf et al.
# Submitted via: EasyCDDAExtractor 5.1.0
# Normalized: r1:DSETVAR1
#
DISCID=f9104d10
DTITLE=Various Artist - Best of Motorcity, Detroit's Soul
DYEAR=1995
DGENRE=
TTITLE0=Freda Payne - Memories And Souvenirs
TTITLE1=JJ Barnes - Whatever Happened To Our Melody
TTITLE2=Martha Reeves and The Vandellas - Angel In Disguise
TTITLE3=Originals - Take The Only Way Out
TTITLE4=Andantes - Boss, The
TTITLE5=Pete Hoorelbeke - Standing In The Rain [LD-Continental]
TTITLE6=Richard 'Popcorn' Wylie - See This Man In Love
TTITLE7=PJ - Tender Loving Care
TTITLE8=Mary Wells - Hold On A Little Longer
TTITLE9=Frank Wilson - Promises To Keep
TTITLE10=Jean, Scherrie and Lynda (Formerly Of The Supremes) - I Want To Be Loved
TTITLE11=Ronnie McNeir - Don't Know If This Is Goodbye
TTITLE12=Vee - You're My Loveline
TTITLE13=Mary Wilson - Oooh Child
TTITLE14=Mickey Denton - Fighting Back
TTITLE15=Betty Lavette - Too Great A Price To Pay
EXTD=
EXTT0=
EXTT1=
EXTT2=
EXTT3=
EXTT4=
EXTT5=
EXTT6=
EXTT7=
EXTT8=
EXTT9=
EXTT10=
EXTT11=
EXTT12=
EXTT13=
EXTT14=
EXTT15=
PLAYORDER=
